<?xml version="1.0" encoding="UTF-8" ?>
<svg width="600" height="500" xmlns="http://www.w3.org/2000/svg" xmlns:xlink="http://www.w3.org/1999/xlink">
<svg x="0" y="150" width="50" height="50">
<rect x="0" y="0" width="50" height="50" fill="white" stroke-width="1" stroke="black" stroke-linejoin="round" />
<text x="60%" y="60%" alignment-baseline="middle" text-anchor="middle" font-size="2em">r</text>
</svg>
<svg x="50" y="50" width="50" height="50">
<rect x="0" y="0" width="50" height="50" fill="white" stroke-width="1" stroke="black" stroke-linejoin="round" />
<text x="60%" y="60%" alignment-baseline="middle" text-anchor="middle" font-size="2em">b</text>
</svg>
<svg x="50" y="150" width="50" height="50">
<rect x="0" y="0" width="50" height="50" fill="white" stroke-width="1" stroke="black" stroke-linejoin="round" />
<text x="60%" y="60%" alignment-baseline="middle" text-anchor="middle" font-size="2em">a</text>
</svg>
<svg x="50" y="250" width="50" height="50">
<rect x="0" y="0" width="50" height="50" fill="white" stroke-width="1" stroke="black" stroke-linejoin="round" />
<text x="60%" y="60%" alignment-baseline="middle" text-anchor="middle" font-size="2em">w</text>
</svg>
<svg x="100" y="50" width="50" height="50">
<rect x="0" y="0" width="50" height="50" fill="white" stroke-width="1" stroke="black" stroke-linejoin="round" />
<text x="60%" y="60%" alignment-baseline="middle" text-anchor="middle" font-size="2em">l</text>
</svg>
<svg x="100" y="150" width="50" height="50">
<rect x="0" y="0" width="50" height="50" fill="white" stroke-width="1" stroke="black" stroke-linejoin="round" />
<text x="60%" y="60%" alignment-baseline="middle" text-anchor="middle" font-size="2em">g</text>
</svg>
<svg x="100" y="250" width="50" height="50">
<rect x="0" y="0" width="50" height="50" fill="white" stroke-width="1" stroke="black" stroke-linejoin="round" />
<text x="60%" y="60%" alignment-baseline="middle" text-anchor="middle" font-size="2em">i</text>
</svg>
<svg x="150" y="0" width="50" height="50">
<rect x="0" y="0" width="50" height="50" fill="white" stroke-width="1" stroke="black" stroke-linejoin="round" />
<text x="60%" y="60%" alignment-baseline="middle" text-anchor="middle" font-size="2em">f</text>
</svg>
<svg x="150" y="50" width="50" height="50">
<rect x="0" y="0" width="50" height="50" fill="white" stroke-width="1" stroke="black" stroke-linejoin="round" />
<text x="60%" y="60%" alignment-baseline="middle" text-anchor="middle" font-size="2em">o</text>
</svg>
<svg x="150" y="100" width="50" height="50">
<rect x="0" y="0" width="50" height="50" fill="white" stroke-width="1" stroke="black" stroke-linejoin="round" />
<text x="60%" y="60%" alignment-baseline="middle" text-anchor="middle" font-size="2em">r</text>
</svg>
<svg x="150" y="150" width="50" height="50">
<rect x="0" y="0" width="50" height="50" fill="white" stroke-width="1" stroke="black" stroke-linejoin="round" />
<text x="60%" y="60%" alignment-baseline="middle" text-anchor="middle" font-size="2em">e</text>
</svg>
<svg x="150" y="200" width="50" height="50">
<rect x="0" y="0" width="50" height="50" fill="white" stroke-width="1" stroke="black" stroke-linejoin="round" />
<text x="60%" y="60%" alignment-baseline="middle" text-anchor="middle" font-size="2em">s</text>
</svg>
<svg x="150" y="250" width="50" height="50">
<rect x="0" y="0" width="50" height="50" fill="white" stroke-width="1" stroke="black" stroke-linejoin="round" />
<text x="60%" y="60%" alignment-baseline="middle" text-anchor="middle" font-size="2em">t</text>
</svg>
<svg x="200" y="50" width="50" height="50">
<rect x="0" y="0" width="50" height="50" fill="white" stroke-width="1" stroke="black" stroke-linejoin="round" />
<text x="60%" y="60%" alignment-baseline="middle" text-anchor="middle" font-size="2em">w</text>
</svg>
<svg x="200" y="250" width="50" height="50">
<rect x="0" y="0" width="50" height="50" fill="white" stroke-width="1" stroke="black" stroke-linejoin="round" />
<text x="60%" y="60%" alignment-baseline="middle" text-anchor="middle" font-size="2em">h</text>
</svg>
<svg x="200" y="300" width="50" height="50">
<rect x="0" y="0" width="50" height="50" fill="white" stroke-width="1" stroke="black" stroke-linejoin="round" />
<text x="60%" y="60%" alignment-baseline="middle" text-anchor="middle" font-size="2em">o</text>
</svg>
<svg x="200" y="350" width="50" height="50">
<rect x="0" y="0" width="50" height="50" fill="white" stroke-width="1" stroke="black" stroke-linejoin="round" />
<text x="60%" y="60%" alignment-baseline="middle" text-anchor="middle" font-size="2em">w</text>
</svg>
<svg x="200" y="400" width="50" height="50">
<rect x="0" y="0" width="50" height="50" fill="white" stroke-width="1" stroke="black" stroke-linejoin="round" />
<text x="60%" y="60%" alignment-baseline="middle" text-anchor="middle" font-size="2em">l</text>
</svg>
<svg x="250" y="200" width="50" height="50">
<rect x="0" y="0" width="50" height="50" fill="white" stroke-width="1" stroke="black" stroke-linejoin="round" />
<text x="60%" y="60%" alignment-baseline="middle" text-anchor="middle" font-size="2em">n</text>
</svg>
<svg x="250" y="350" width="50" height="50">
<rect x="0" y="0" width="50" height="50" fill="white" stroke-width="1" stroke="black" stroke-linejoin="round" />
<text x="60%" y="60%" alignment-baseline="middle" text-anchor="middle" font-size="2em">i</text>
</svg>
<svg x="300" y="150" width="50" height="50">
<rect x="0" y="0" width="50" height="50" fill="white" stroke-width="1" stroke="black" stroke-linejoin="round" />
<text x="60%" y="60%" alignment-baseline="middle" text-anchor="middle" font-size="2em">t</text>
</svg>
<svg x="300" y="200" width="50" height="50">
<rect x="0" y="0" width="50" height="50" fill="white" stroke-width="1" stroke="black" stroke-linejoin="round" />
<text x="60%" y="60%" alignment-baseline="middle" text-anchor="middle" font-size="2em">o</text>
</svg>
<svg x="300" y="300" width="50" height="50">
<rect x="0" y="0" width="50" height="50" fill="white" stroke-width="1" stroke="black" stroke-linejoin="round" />
<text x="60%" y="60%" alignment-baseline="middle" text-anchor="middle" font-size="2em">i</text>
</svg>
<svg x="300" y="350" width="50" height="50">
<rect x="0" y="0" width="50" height="50" fill="white" stroke-width="1" stroke="black" stroke-linejoin="round" />
<text x="60%" y="60%" alignment-baseline="middle" text-anchor="middle" font-size="2em">n</text>
</svg>
<svg x="350" y="150" width="50" height="50">
<rect x="0" y="0" width="50" height="50" fill="white" stroke-width="1" stroke="black" stroke-linejoin="round" />
<text x="60%" y="60%" alignment-baseline="middle" text-anchor="middle" font-size="2em">h</text>
</svg>
<svg x="350" y="250" width="50" height="50">
<rect x="0" y="0" width="50" height="50" fill="white" stroke-width="1" stroke="black" stroke-linejoin="round" />
<text x="60%" y="60%" alignment-baseline="middle" text-anchor="middle" font-size="2em">O</text>
</svg>
<svg x="350" y="350" width="50" height="50">
<rect x="0" y="0" width="50" height="50" fill="white" stroke-width="1" stroke="black" stroke-linejoin="round" />
<text x="60%" y="60%" alignment-baseline="middle" text-anchor="middle" font-size="2em">d</text>
</svg>
<svg x="400" y="100" width="50" height="50">
<rect x="0" y="0" width="50" height="50" fill="white" stroke-width="1" stroke="black" stroke-linejoin="round" />
<text x="60%" y="60%" alignment-baseline="middle" text-anchor="middle" font-size="2em">l</text>
</svg>
<svg x="400" y="150" width="50" height="50">
<rect x="0" y="0" width="50" height="50" fill="white" stroke-width="1" stroke="black" stroke-linejoin="round" />
<text x="60%" y="60%" alignment-baseline="middle" text-anchor="middle" font-size="2em">e</text>
</svg>
<svg x="400" y="200" width="50" height="50">
<rect x="0" y="0" width="50" height="50" fill="white" stroke-width="1" stroke="black" stroke-linejoin="round" />
<text x="60%" y="60%" alignment-baseline="middle" text-anchor="middle" font-size="2em">a</text>
</svg>
<svg x="400" y="250" width="50" height="50">
<rect x="0" y="0" width="50" height="50" fill="white" stroke-width="1" stroke="black" stroke-linejoin="round" />
<text x="60%" y="60%" alignment-baseline="middle" text-anchor="middle" font-size="2em">v</text>
</svg>
<svg x="400" y="300" width="50" height="50">
<rect x="0" y="0" width="50" height="50" fill="white" stroke-width="1" stroke="black" stroke-linejoin="round" />
<text x="60%" y="60%" alignment-baseline="middle" text-anchor="middle" font-size="2em">e</text>
</svg>
<svg x="400" y="350" width="50" height="50">
<rect x="0" y="0" width="50" height="50" fill="white" stroke-width="1" stroke="black" stroke-linejoin="round" />
<text x="60%" y="60%" alignment-baseline="middle" text-anchor="middle" font-size="2em">s</text>
</svg>
<svg x="450" y="250" width="50" height="50">
<rect x="0" y="0" width="50" height="50" fill="white" stroke-width="1" stroke="black" stroke-linejoin="round" />
<text x="60%" y="60%" alignment-baseline="middle" text-anchor="middle" font-size="2em">e</text>
</svg>
<svg x="500" y="50" width="50" height="50">
<rect x="0" y="0" width="50" height="50" fill="white" stroke-width="1" stroke="black" stroke-linejoin="round" />
<text x="60%" y="60%" alignment-baseline="middle" text-anchor="middle" font-size="2em">w</text>
</svg>
<svg x="500" y="100" width="50" height="50">
<rect x="0" y="0" width="50" height="50" fill="white" stroke-width="1" stroke="black" stroke-linejoin="round" />
<text x="60%" y="60%" alignment-baseline="middle" text-anchor="middle" font-size="2em">i</text>
</svg>
<svg x="500" y="150" width="50" height="50">
<rect x="0" y="0" width="50" height="50" fill="white" stroke-width="1" stroke="black" stroke-linejoin="round" />
<text x="60%" y="60%" alignment-baseline="middle" text-anchor="middle" font-size="2em">n</text>
</svg>
<svg x="500" y="200" width="50" height="50">
<rect x="0" y="0" width="50" height="50" fill="white" stroke-width="1" stroke="black" stroke-linejoin="round" />
<text x="60%" y="60%" alignment-baseline="middle" text-anchor="middle" font-size="2em">t</text>
</svg>
<svg x="500" y="250" width="50" height="50">
<rect x="0" y="0" width="50" height="50" fill="white" stroke-width="1" stroke="black" stroke-linejoin="round" />
<text x="60%" y="60%" alignment-baseline="middle" text-anchor="middle" font-size="2em">r</text>
</svg>
<svg x="500" y="300" width="50" height="50">
<rect x="0" y="0" width="50" height="50" fill="white" stroke-width="1" stroke="black" stroke-linejoin="round" />
<text x="60%" y="60%" alignment-baseline="middle" text-anchor="middle" font-size="2em">y</text>
</svg>
</svg>
